<svg width="176" height="176" viewBox="0 0 176 176" fill="none" xmlns="http://www.w3.org/2000/svg">
<path d="M147.125 0H28.875C25.0841 0 22 3.08413 22 6.875V160.875C22 164.666 25.0841 167.75 28.875 167.75H147.125C150.916 167.75 154 164.666 154 160.875V6.875C154 3.08413 150.916 0 147.125 0ZM151.25 160.875C151.25 163.149 149.399 165 147.125 165H28.875C26.6007 165 24.75 163.149 24.75 160.875V6.875C24.75 4.60075 26.6007 2.75 28.875 2.75H147.125C149.399 2.75 151.25 4.60075 151.25 6.875V160.875Z" fill="#905B33"/>
<path d="M88 0C87.241 0 86.625 0.616 86.625 1.375V166.375C86.625 167.134 87.241 167.75 88 167.75C88.759 167.75 89.375 167.134 89.375 166.375V1.375C89.375 0.616 88.759 0 88 0Z" fill="#905B33"/>
<path d="M147.125 165C146.366 165 145.75 165.616 145.75 166.375V173.25H30.25V166.375C30.25 165.616 29.634 165 28.875 165C28.116 165 27.5 165.616 27.5 166.375V174.625C27.5 175.384 28.116 176 28.875 176H147.125C147.884 176 148.5 175.384 148.5 174.625V166.375C148.5 165.616 147.884 165 147.125 165Z" fill="#905B33"/>
<path d="M76.3125 78.375C73.6588 78.375 71.5 80.5338 71.5 83.1875C71.5 85.8412 73.6588 88 76.3125 88C78.9662 88 81.125 85.8412 81.125 83.1875C81.125 80.5338 78.9662 78.375 76.3125 78.375ZM76.3125 85.25C75.1754 85.25 74.25 84.3246 74.25 83.1875C74.25 82.0504 75.1754 81.125 76.3125 81.125C77.4496 81.125 78.375 82.0504 78.375 83.1875C78.375 84.3246 77.4496 85.25 76.3125 85.25Z" fill="#905B33"/>
<path d="M99.6875 78.375C97.0338 78.375 94.875 80.5338 94.875 83.1875C94.875 85.8412 97.0338 88 99.6875 88C102.341 88 104.5 85.8412 104.5 83.1875C104.5 80.5338 102.341 78.375 99.6875 78.375ZM99.6875 85.25C98.5504 85.25 97.625 84.3246 97.625 83.1875C97.625 82.0504 98.5504 81.125 99.6875 81.125C100.825 81.125 101.75 82.0504 101.75 83.1875C101.75 84.3246 100.825 85.25 99.6875 85.25Z" fill="#905B33"/>
<path d="M30.25 112.75C29.491 112.75 28.875 113.366 28.875 114.125V121C28.875 121.759 29.491 122.375 30.25 122.375C31.009 122.375 31.625 121.759 31.625 121V114.125C31.625 113.366 31.009 112.75 30.25 112.75Z" fill="#905B33"/>
<path d="M30.25 127.875C29.491 127.875 28.875 128.491 28.875 129.25V154C28.875 154.759 29.491 155.375 30.25 155.375C31.009 155.375 31.625 154.759 31.625 154V129.25C31.625 128.491 31.009 127.875 30.25 127.875Z" fill="#905B33"/>
<path d="M145.75 6.875H140.25C139.491 6.875 138.875 7.491 138.875 8.25C138.875 9.009 139.491 9.625 140.25 9.625H144.375V27.5C144.375 28.259 144.991 28.875 145.75 28.875C146.509 28.875 147.125 28.259 147.125 27.5V8.25C147.125 7.491 146.509 6.875 145.75 6.875Z" fill="#905B33"/>
<path d="M134.75 6.875H129.25C128.491 6.875 127.875 7.491 127.875 8.25C127.875 9.009 128.491 9.625 129.25 9.625H134.75C135.509 9.625 136.125 9.009 136.125 8.25C136.125 7.491 135.509 6.875 134.75 6.875Z" fill="#905B33"/>
</svg>
